<?xml version="1.0"?>
<svg version="1.1" xmlns="http://www.w3.org/2000/svg" width="327px" height="137px" style=""><path fill="#" d="M17.2041015625,81.9052734375q0-1.4814453125,0.52392578125-2.4931640625t2.22216796875-1.01171875q0.650390625,0,1.6259765625,0.19873046875t1.1201171875,0.99365234375q0.361328125,2.1318359375,0.3974609375,4.625t0.2529296875,4.697265625q0.8310546875-1.6259765625,2.1318359375-3.5048828125t2.962890625-3.46875t3.61328125-2.6376953125t3.974609375-1.0478515625q0.14453125,0,0.5419921875,0.1083984375t0.74072265625,0.30712890625t0.41552734375,0.45166015625t-0.3974609375,0.4697265625q-0.14453125,0.43359375-0.6142578125,0.52392578125t-0.8310546875,0.09033203125q-0.216796875,0-0.6865234375-0.1806640625q-2.673828125,1.4091796875-4.552734375,3.830078125t-3.0712890625,5.36572265625t-1.734375,6.21484375t-0.5419921875,6.37744140625q0,1.5537109375-0.70458984375,1.87890625t-2.25830078125,0.3251953125q-0.8310546875,0-1.75244140625-0.1806640625t-1.28271484375-1.15625q-0.650390625-2.0595703125-1.06591796875-4.7333984375t-0.63232421875-5.51025390625t-0.30712890625-5.58251953125t-0.09033203125-4.9501953125z M42.882607421875,93.50390625q0-2.529296875,0.56005859375-5.9619140625t1.89697265625-6.50390625t3.52294921875-5.22119140625t5.51025390625-2.14990234375q3.107421875,0,4.6611328125,1.78857421875t1.5537109375,4.82373046875q0,1.9873046875-0.74072265625,4.35400390625t-2.11376953125,4.48046875t-3.251953125,3.52294921875t-4.19140625,1.4091796875l-0.939453125-0.072265625q0,0.9755859375,0.2890625,2.61962890625t0.84912109375,3.27001953125t1.4453125,2.8544921875t2.14990234375,1.228515625q1.8427734375,0,3.541015625-1.4814453125t3.2158203125-3.2880859375t2.818359375-3.2880859375t2.384765625-1.4814453125q0.578125,0,1.1923828125,0.1806640625t0.6865234375,1.01171875q0,0.505859375-0.27099609375,0.8310546875t-0.48779296875,0.72265625q-1.1201171875,1.9150390625-2.43896484375,3.6494140625t-2.98095703125,3.1435546875t-3.63134765625,2.22216796875t-4.35400390625,0.81298828125q-3.107421875,0-5.1669921875-1.10205078125t-3.32421875-2.962890625t-1.82470703125-4.2998046875t-0.56005859375-5.11279296875z M49.350380859375,90.7578125l1.01171875,0.9033203125q0.72265625,0.650390625,1.4453125,0.2890625t1.30078125-1.31884765625t1.06591796875-2.36669921875t0.8671875-2.890625t0.56005859375-2.890625t0.1806640625-2.3486328125l0-1.228515625t-0.1083984375-1.30078125t-0.37939453125-1.02978515625t-0.84912109375-0.52392578125q-0.1806640625-0.0361328125-0.3251953125-0.0361328125q-1.228515625,0-2.095703125,1.5537109375q-0.939453125,1.734375-1.517578125,4.20947265625t-0.8310546875,5.07666015625t-0.3251953125,3.90234375z M73.168046875,82.97119140625q-0.09033203125-1.21044921875,0.14453125-2.22216796875t0.939453125-1.64404296875t2.25830078125-0.63232421875q0.361328125,0,0.88525390625,0.09033203125t1.02978515625,0.23486328125t0.84912109375,0.43359375t0.34326171875,0.794921875l0,4.0830078125q1.4091796875-1.6259765625,3.0712890625-2.33056640625t3.7939453125-0.70458984375q1.6259765625,0,3.2158203125,0.74072265625t2.9990234375,1.96923828125t2.43896484375,2.7099609375t1.49951171875,2.962890625q0.2890625-1.3369140625,0.650390625-3.27001953125t1.06591796875-3.70361328125t1.86083984375-3.03515625t3.0712890625-1.2646484375q2.0595703125,0,3.46875,1.4814453125t2.29443359375,3.84814453125t1.3369140625,5.29345703125t0.66845703125,5.78125t0.216796875,5.32958984375l0,3.88427734375q0,0.43359375-0.3251953125,0.70458984375t-0.81298828125,0.41552734375t-1.01171875,0.1806640625t-0.81298828125,0.0361328125q-1.1201171875,0-2.04150390625-0.34326171875t-0.92138671875-1.75244140625l0-3.251953125t-0.072265625-4.20947265625t-0.2529296875-4.5166015625t-0.4697265625-4.10107421875t-0.74072265625-2.962890625t-1.10205078125-1.15625q-0.9033203125,0-1.30078125,1.01171875t-0.66845703125,2.5654296875t-0.41552734375,3.2880859375t-0.3974609375,3.2880859375t-0.81298828125,2.54736328125t-1.53564453125,0.99365234375q-1.0478515625,0-1.8427734375-0.99365234375t-1.57177734375-2.47509765625t-1.5537109375-3.1796875t-1.71630859375-3.1796875q-0.939453125-1.517578125-2.0234375-2.45703125q-0.9755859375-0.9033203125-2.2041015625-0.8671875l-0.1806640625,0q-1.6259765625,0.072265625-2.54736328125,1.17431640625t-1.4091796875,2.69189453125t-0.59619140625,3.41455078125t-0.1083984375,3.19775390625q0,1.30078125,0.216796875,3.03515625q0.14453125,1.15625,0.14453125,2.2041015625q0,0.5419921875-0.0361328125,1.0478515625q-0.1083984375,1.517578125-0.81298828125,2.54736328125t-2.61962890625,1.02978515625q-0.72265625,0-1.806640625-0.14453125t-1.4453125-0.9755859375q-0.8310546875-1.4814453125-1.2646484375-3.73974609375t-0.650390625-4.6611328125t-0.2529296875-4.76953125t-0.0361328125-4.06494140625q0-1.1923828125-0.09033203125-2.40283203125z M118.01500976562,92.708984375q0-2.0595703125,0.52392578125-4.24560546875t1.662109375-3.9384765625t2.87255859375-2.8544921875t4.19140625-1.10205078125q1.8427734375,0,3.88427734375,0.63232421875t3.73974609375,1.806640625t2.76416015625,2.87255859375t1.06591796875,3.7939453125q0,2.529296875-0.92138671875,4.8056640625t-2.58349609375,4.06494140625t-3.88427734375,2.818359375t-4.82373046875,1.02978515625q-2.1318359375,0-3.7216796875-0.77685546875t-2.65576171875-2.07763671875t-1.58984375-3.0712890625t-0.52392578125-3.7578125z M123.32653320312,92.63671875q0,0.650390625,0.19873046875,1.9150390625t0.59619140625,2.47509765625t1.02978515625,2.095703125t1.53564453125,0.81298828125q1.9150390625-0.216796875,3.16162109375-1.24658203125t2.0234375-2.51123046875t1.083984375-3.2158203125t0.30712890625-3.2880859375q0-1.9873046875-0.77685546875-3.32421875t-2.54736328125-2.16796875q0,0.072265625,0.072265625,0.072265625t0.072265625-0.072265625l-0.9033203125-0.216796875q-0.361328125-0.14453125-0.88525390625-0.3251953125t-1.02978515625-0.794921875q-1.4091796875,0.505859375-2.18603515625,1.30078125t-1.17431640625,1.93310546875t-0.48779296875,2.72802734375t-0.09033203125,3.830078125z M146.873203125,87.72265625q0-0.72265625,1.96923828125-1.083984375t4.625-0.52392578125t5.51025390625-0.12646484375t4.625,0.0361328125q0.9033203125,0,2.11376953125,0.34326171875t1.21044921875,1.13818359375q0,0.650390625-0.578125,0.95751953125t-1.35498046875,0.45166015625t-1.517578125,0.14453125l-0.95751953125,0q-2.529296875,0-4.75146484375-0.1083984375t-4.60693359375-0.1083984375q-0.72265625,0-1.46337890625,0.072265625t-1.39111328125,0.072265625l-1.02978515625,0t-1.1201171875-0.1083984375t-0.9033203125-0.361328125t-0.37939453125-0.794921875z M175.80366210938,82.7001953125q0-1.4814453125,0.8671875-2.54736328125t2.11376953125-1.734375t2.72802734375-0.99365234375t2.74609375-0.3251953125q0.9755859375,0,2.6015625,0.2890625t3.1796875,0.8671875t2.69189453125,1.517578125t1.13818359375,2.2041015625q0,0.578125-0.43359375,1.02978515625t-0.9033203125,0.45166015625q-0.9755859375,0-1.7705078125-0.63232421875t-1.64404296875-1.3369140625t-1.86083984375-1.3369140625t-2.2763671875-0.63232421875t-2.29443359375,0.81298828125t-1.02978515625,2.14990234375q0,2.2041015625,1.5537109375,4.31787109375t3.41455078125,4.4443359375t3.41455078125,4.89599609375t1.5537109375,5.6728515625q0,1.3369140625-0.56005859375,2.25830078125t-1.4814453125,1.49951171875t-2.07763671875,0.88525390625t-2.240234375,0.30712890625q-1.1923828125,0-2.7822265625-0.56005859375t-2.9990234375-1.4814453125t-2.36669921875-2.14990234375t-0.95751953125-2.5654296875q0-0.650390625,0.92138671875-0.8310546875t1.35498046875-0.1806640625q0.216796875,0,0.66845703125,0.14453125t0.88525390625,0.3251953125t0.77685546875,0.3974609375t0.27099609375,0.4697265625q0.361328125,0.43359375,1.10205078125,1.28271484375t1.4814453125,1.373046875t1.30078125,0.37939453125t0.56005859375-1.6259765625q0-2.818359375-1.517578125-5.18505859375t-3.30615234375-4.625t-3.30615234375-4.48046875t-1.517578125-4.75146484375z M201.26537109375,95.9609375l0-3.396484375q0-1.8427734375,0.09033203125-5.22119140625t0.23486328125-7.4072265625t0.3974609375-8.40087890625t0.578125-8.25634765625t0.77685546875-6.95556640625t1.02978515625-4.552734375q0.361328125-0.8310546875,1.1923828125-1.0478515625t1.6259765625-0.216796875q1.2646484375,0,2.22216796875,0.56005859375t0.95751953125,2.04150390625l-0.650390625,0.72265625q-1.2646484375,8.3466796875-1.6259765625,16.765625t-0.505859375,16.837890625q0.9033203125-1.4091796875,2.04150390625-2.76416015625t2.529296875-2.40283203125t2.9990234375-1.68017578125t3.52294921875-0.63232421875q2.45703125,0,4.06494140625,1.4814453125t2.65576171875,3.84814453125t1.5537109375,5.29345703125t0.77685546875,5.853515625t0.37939453125,5.54638671875t0.3251953125,4.35400390625q-0.6865234375,0.939453125-2.0234375,0.939453125l-0.1083984375,0q-0.578125,0-1.2646484375-0.14453125t-0.9033203125-0.72265625l0.072265625,0.072265625q-0.505859375-1.1201171875-0.6865234375-3.23388671875t-0.2890625-4.6611328125t-0.37939453125-5.22119140625t-0.81298828125-4.841796875t-1.58984375-3.5771484375t-2.818359375-1.4814453125l-0.216796875,0q-2.1318359375,0-3.5771484375,1.30078125q-1.517578125,1.373046875-2.45703125,3.61328125t-1.4453125,4.986328125t-0.77685546875,5.29345703125t-0.41552734375,4.625t-0.361328125,3.05322265625q-0.216796875,0.8310546875-1.28271484375,1.10205078125t-1.82470703125,0.27099609375q-1.7705078125,0-2.890625-1.01171875q-0.8310546875-1.9873046875-0.9755859375-4.9501953125t-0.14453125-5.78125z M235.10989257813,92.708984375q0-2.0595703125,0.52392578125-4.24560546875t1.662109375-3.9384765625t2.87255859375-2.8544921875t4.19140625-1.10205078125q1.8427734375,0,3.88427734375,0.63232421875t3.73974609375,1.806640625t2.76416015625,2.87255859375t1.06591796875,3.7939453125q0,2.529296875-0.92138671875,4.8056640625t-2.58349609375,4.06494140625t-3.88427734375,2.818359375t-4.82373046875,1.02978515625q-2.1318359375,0-3.7216796875-0.77685546875t-2.65576171875-2.07763671875t-1.58984375-3.0712890625t-0.52392578125-3.7578125z M240.42141601563,92.63671875q0,0.650390625,0.19873046875,1.9150390625t0.59619140625,2.47509765625t1.02978515625,2.095703125t1.53564453125,0.81298828125q1.9150390625-0.216796875,3.16162109375-1.24658203125t2.0234375-2.51123046875t1.083984375-3.2158203125t0.30712890625-3.2880859375q0-1.9873046875-0.77685546875-3.32421875t-2.54736328125-2.16796875q0,0.072265625,0.072265625,0.072265625t0.072265625-0.072265625l-0.9033203125-0.216796875q-0.361328125-0.14453125-0.88525390625-0.3251953125t-1.02978515625-0.794921875q-1.4091796875,0.505859375-2.18603515625,1.30078125t-1.17431640625,1.93310546875t-0.48779296875,2.72802734375t-0.09033203125,3.830078125z M262.486640625,78.9423828125q0-1.6982421875,0.66845703125-2.51123046875t2.43896484375-0.81298828125q1.0478515625,0,1.96923828125,0.43359375t0.92138671875,1.8427734375q0.14453125,2.0595703125,0.14453125,4.31787109375t0.3974609375,4.28173828125q0.9033203125-1.4814453125,2.04150390625-2.962890625t2.51123046875-2.6376953125t2.9990234375-1.86083984375t3.541015625-0.70458984375q2.6015625,0,4.408203125,1.083984375t2.98095703125,2.818359375t1.6982421875,3.92041015625t0.52392578125,4.39013671875q0,3.396484375-1.02978515625,5.54638671875t-2.72802734375,3.37841796875t-3.84814453125,1.662109375t-4.31787109375,0.43359375q-1.9150390625,0-3.5771484375-0.74072265625t-2.3125-2.80029296875q0-0.578125,0.84912109375-0.72265625t1.21044921875-0.14453125q1.1923828125,0,1.7705078125,0.650390625q0.43359375,0.505859375,0.95751953125,1.02978515625t1.10205078125,0.52392578125q1.1201171875,0,2.3486328125-0.63232421875t2.25830078125-1.662109375t1.734375-2.43896484375t0.70458984375-2.890625q0-1.2646484375-0.216796875-3.1435546875t-0.74072265625-3.61328125t-1.4453125-2.9990234375t-2.33056640625-1.2646484375q-2.1318359375,0-3.84814453125,1.951171875t-2.8544921875,4.697265625t-1.7705078125,5.708984375t-0.63232421875,4.9501953125t0.2529296875,5.0224609375t0.52392578125,6.30517578125t0.52392578125,6.30517578125t0.2529296875,5.0224609375q0,0.505859375-0.41552734375,0.81298828125t-0.99365234375,0.48779296875t-1.17431640625,0.216796875t-0.88525390625,0.0361328125q-0.9755859375,0-2.04150390625-0.216796875t-1.46337890625-1.3369140625q-0.505859375-1.7705078125-0.939453125-5.04052734375t-0.77685546875-7.2265625t-0.59619140625-8.310546875t-0.43359375-8.40087890625t-0.27099609375-7.4072265625t-0.09033203125-5.34765625z"/><path fill="#" d=""/></svg>
